<svg xmlns="http://www.w3.org/2000/svg" viewBox="0 0 288.29 257.84"><defs><style>.cls-1{font-size:100px;font-family:Condiment-Regular, Condiment;}.cls-2{letter-spacing:-0.02em;}.cls-3{letter-spacing:0em;}.cls-4{letter-spacing:-0.02em;}</style></defs><title>logo3</title><g id="Layer_2" data-name="Layer 2"><g id="Layer_1-2" data-name="Layer 1"><text class="cls-1" transform="translate(20.3 193.74)">f<tspan class="cls-2" x="38.6" y="0">r</tspan><tspan class="cls-3" x="76.2" y="0" xml:space="preserve">i  g</tspan><tspan class="cls-4" x="175.4" y="0">e</tspan><tspan x="207.6" y="0">t</tspan></text><path d="M197.8,0H130.59a10.94,10.94,0,0,0-10.93,10.93V47.71h89.07V10.93A10.94,10.94,0,0,0,197.8,0Zm-54,36.1h-8.16V19.76h8.16Z"/><path d="M119.66,55.86v70.51a10.94,10.94,0,0,0,10.93,10.93h39l.92-1.56q15.1-25.7,17.7-31,2.2-4.39,11.1-4.4c1.8,0,2.7.54,2.7,1.6q0,.6-4.25,6.2t-12.1,17.1q-4.07,6-7.81,12.06h20a10.94,10.94,0,0,0,10.93-10.93V55.86Zm24.14,28h-8.16V67.47h8.16Z"/><path d="M162.8,148.39c-.8,1-1.35,1.55-1.65,1.55a10.08,10.08,0,0,1-2.3-.65,12.2,12.2,0,0,0-4-.65q-15.8,0-26.2,15.7-6.6,9.9-6.6,17.5,0,3.81,1.65,5.35a5.2,5.2,0,0,0,3.65,1.55q6.49,0,15.1-8.3a2.74,2.74,0,0,1,1.5-.7l.7,1-.2,2q0,5.4,4.8,5.4h.2c.47,0,.83-.4,1.1-1.2q3.3-10.5,20.6-38.1,3.24-5.84,6.74-11.54h-8.26Q163.91,147,162.8,148.39Zm-9.8,15.3a70.33,70.33,0,0,1-9.3,9.95q-5.3,4.71-8.1,4.7-2.1,0-2.1-3,0-5.59,6.4-13.5t12.2-7.9a6.16,6.16,0,0,1,3.7.9,2.72,2.72,0,0,1,1.2,2.25Q157,158.44,153,163.69Z"/></g></g></svg>